<svg width="32" height="32" viewBox="0 0 32 32" fill="none" xmlns="http://www.w3.org/2000/svg">
<g clip-path="url(#clip0_25_413)">
<path d="M26.047 12.197C24.219 12.197 23.203 13.552 22.99 15.021H29.137C28.97 13.62 27.98 12.202 26.048 12.202L26.047 12.197ZM23.036 17.027C23.349 18.568 24.625 19.651 26.412 19.651C27.375 19.651 28.771 19.292 29.588 18.432L31.156 20.235C29.74 21.714 27.62 22.136 26.172 22.136C22.651 22.136 19.907 19.593 19.907 15.989C19.907 12.614 22.432 9.83301 26 9.83301C29.448 9.83301 32 12.473 32 15.969V16.989H23.036V17.027ZM14.385 22.131V14.542C14.385 13.246 13.806 12.495 12.598 12.495C11.515 12.495 10.797 13.276 10.311 13.839V22.156H7.17599V14.557C7.17599 13.254 6.62399 12.516 5.41999 12.516C4.33699 12.516 3.58699 13.297 3.12899 13.86V22.177H-0.00201416V10.01H3.13399V11.541C3.66499 10.926 4.86699 9.86401 6.74299 9.86401C8.40999 9.86401 9.53899 10.563 10.044 11.984C10.747 10.969 12.044 9.86401 13.924 9.86401C16.195 9.86401 17.513 11.208 17.513 13.812V22.136H14.377L14.382 22.125L14.385 22.131Z" fill="white"/>
</g>
<defs>
<clipPath id="clip0_25_413">
<rect width="32" height="32" fill="white"/>
</clipPath>
</defs>
</svg>
